<?xml version = "1.0" encoding = "utf-8" standalone = "no"?><!DOCTYPE svg PUBLIC "-//W3C//DTD SVG 1.1//EN" "http://www.w3.org/Graphics/SVG/1.1/DTD/svg11.dtd">
<svg preserveAspectRatio = "xMinYMin meet" width = "100%" height = "100%" fill = "none" viewBox = "0 0 560.000 420.000"  version = "1.1" xmlns = "http://www.w3.org/2000/svg" xmlns:xlink = "http://www.w3.org/1999/xlink">
  <desc>Matlab Figure Converted by FIG2SVG</desc>
  <g id = "topgroup">
  <rect x = "0" y = "0" width = "560.000" height = "420.000" fill = "#ffffff" stroke = "none" />
  <g id  = "ID000000">
      <polygon fill = "#ffffff" fill-opacity = "1.000" stroke = "none" points = "60.137,361.533 391.262,361.533 391.262,31.500 60.137,31.500 "/>
      <polygon fill = "#ffffff" fill-opacity = "1.000" stroke = "none" points = "60.137,31.500 391.262,31.500 391.262,31.500 60.137,31.500 "/>
      <polygon fill = "#ffffff" fill-opacity = "1.000" stroke = "none" points = "60.137,361.533 60.137,361.533 60.137,31.500 60.137,31.500 "/>
    <g>
<g id = "ID000002" >
  <g transform = "translate(25.190,196.517)">
    <g transform = "rotate(-90.000)">
      <text x = "0.000" y = "-0.2em" font-family = "Arial" text-anchor = "middle" dominant-baseline = "auto" font-size = "16.000pt" fill = "#262626"><tspan>Y</tspan></text>
    </g>
  </g>
</g>
<g id = "ID000003" >
  <g transform = "translate(225.699,394.703)">
    <g transform = "rotate(-0.000)">
      <text x = "0.000" y = "0.9em" font-family = "Arial" text-anchor = "middle" dominant-baseline = "auto" font-size = "16.000pt" fill = "#262626"><tspan>X</tspan></text>
    </g>
  </g>
</g>
<g id = "ID000004" >
</g>
<g id = "ID000005" clip-path = "url(#ID000001)" >
      <polyline fill = "none" stroke-linecap = "square" stroke-linejoin = "round" stroke = "#0071bc" stroke-width = "2.000pt" stroke-dasharray = "none" stroke-opacity = "1.000" points = "60.137,361.533 96.928,324.863 133.720,288.193 170.512,251.522 207.303,214.852 244.095,178.181 280.887,141.511 317.678,104.841 354.470,68.170 391.262,31.500 "/>
<g>
      <polygon fill = "none" stroke-linecap = "square" stroke-linejoin = "miter" stroke = "#0071bc" stroke-width = "2.000pt" stroke-opacity = "1.000" stroke-dasharray = "none" points = "55.137,356.533 55.137,366.533 65.137,366.533 65.137,356.533 55.137,356.533 "/>
      <polygon fill = "none" stroke-linecap = "square" stroke-linejoin = "miter" stroke = "#0071bc" stroke-width = "2.000pt" stroke-opacity = "1.000" stroke-dasharray = "none" points = "91.928,319.863 91.928,329.863 101.928,329.863 101.928,319.863 91.928,319.863 "/>
      <polygon fill = "none" stroke-linecap = "square" stroke-linejoin = "miter" stroke = "#0071bc" stroke-width = "2.000pt" stroke-opacity = "1.000" stroke-dasharray = "none" points = "128.720,283.193 128.720,293.193 138.720,293.193 138.720,283.193 128.720,283.193 "/>
      <polygon fill = "none" stroke-linecap = "square" stroke-linejoin = "miter" stroke = "#0071bc" stroke-width = "2.000pt" stroke-opacity = "1.000" stroke-dasharray = "none" points = "165.512,246.522 165.512,256.522 175.512,256.522 175.512,246.522 165.512,246.522 "/>
      <polygon fill = "none" stroke-linecap = "square" stroke-linejoin = "miter" stroke = "#0071bc" stroke-width = "2.000pt" stroke-opacity = "1.000" stroke-dasharray = "none" points = "202.303,209.852 202.303,219.852 212.303,219.852 212.303,209.852 202.303,209.852 "/>
      <polygon fill = "none" stroke-linecap = "square" stroke-linejoin = "miter" stroke = "#0071bc" stroke-width = "2.000pt" stroke-opacity = "1.000" stroke-dasharray = "none" points = "239.095,173.181 239.095,183.181 249.095,183.181 249.095,173.181 239.095,173.181 "/>
      <polygon fill = "none" stroke-linecap = "square" stroke-linejoin = "miter" stroke = "#0071bc" stroke-width = "2.000pt" stroke-opacity = "1.000" stroke-dasharray = "none" points = "275.887,136.511 275.887,146.511 285.887,146.511 285.887,136.511 275.887,136.511 "/>
      <polygon fill = "none" stroke-linecap = "square" stroke-linejoin = "miter" stroke = "#0071bc" stroke-width = "2.000pt" stroke-opacity = "1.000" stroke-dasharray = "none" points = "312.678,99.841 312.678,109.841 322.678,109.841 322.678,99.841 312.678,99.841 "/>
      <polygon fill = "none" stroke-linecap = "square" stroke-linejoin = "miter" stroke = "#0071bc" stroke-width = "2.000pt" stroke-opacity = "1.000" stroke-dasharray = "none" points = "349.470,63.170 349.470,73.170 359.470,73.170 359.470,63.170 349.470,63.170 "/>
      <polygon fill = "none" stroke-linecap = "square" stroke-linejoin = "miter" stroke = "#0071bc" stroke-width = "2.000pt" stroke-opacity = "1.000" stroke-dasharray = "none" points = "386.262,26.500 386.262,36.500 396.262,36.500 396.262,26.500 386.262,26.500 "/>
</g>
</g>
<g id = "ID000006" clip-path = "url(#ID000001)" >
      <polyline fill = "none" stroke-linecap = "square" stroke-linejoin = "round" stroke = "#d85218" stroke-width = "2.000pt" stroke-dasharray = "none" stroke-opacity = "1.000" points = "60.137,31.500 96.928,68.170 133.720,104.841 170.512,141.511 207.303,178.181 244.095,214.852 280.887,251.522 317.678,288.193 354.470,324.863 391.262,361.533 "/>
<g>
      <polygon fill = "none" stroke-linecap = "square" stroke-linejoin = "miter" stroke = "#d85218" stroke-width = "2.000pt" stroke-opacity = "1.000" stroke-dasharray = "none" points = "55.137,26.500 55.137,36.500 65.137,36.500 65.137,26.500 55.137,26.500 "/>
      <polygon fill = "none" stroke-linecap = "square" stroke-linejoin = "miter" stroke = "#d85218" stroke-width = "2.000pt" stroke-opacity = "1.000" stroke-dasharray = "none" points = "91.928,63.170 91.928,73.170 101.928,73.170 101.928,63.170 91.928,63.170 "/>
      <polygon fill = "none" stroke-linecap = "square" stroke-linejoin = "miter" stroke = "#d85218" stroke-width = "2.000pt" stroke-opacity = "1.000" stroke-dasharray = "none" points = "128.720,99.841 128.720,109.841 138.720,109.841 138.720,99.841 128.720,99.841 "/>
      <polygon fill = "none" stroke-linecap = "square" stroke-linejoin = "miter" stroke = "#d85218" stroke-width = "2.000pt" stroke-opacity = "1.000" stroke-dasharray = "none" points = "165.512,136.511 165.512,146.511 175.512,146.511 175.512,136.511 165.512,136.511 "/>
      <polygon fill = "none" stroke-linecap = "square" stroke-linejoin = "miter" stroke = "#d85218" stroke-width = "2.000pt" stroke-opacity = "1.000" stroke-dasharray = "none" points = "202.303,173.181 202.303,183.181 212.303,183.181 212.303,173.181 202.303,173.181 "/>
      <polygon fill = "none" stroke-linecap = "square" stroke-linejoin = "miter" stroke = "#d85218" stroke-width = "2.000pt" stroke-opacity = "1.000" stroke-dasharray = "none" points = "239.095,209.852 239.095,219.852 249.095,219.852 249.095,209.852 239.095,209.852 "/>
      <polygon fill = "none" stroke-linecap = "square" stroke-linejoin = "miter" stroke = "#d85218" stroke-width = "2.000pt" stroke-opacity = "1.000" stroke-dasharray = "none" points = "275.887,246.522 275.887,256.522 285.887,256.522 285.887,246.522 275.887,246.522 "/>
      <polygon fill = "none" stroke-linecap = "square" stroke-linejoin = "miter" stroke = "#d85218" stroke-width = "2.000pt" stroke-opacity = "1.000" stroke-dasharray = "none" points = "312.678,283.193 312.678,293.193 322.678,293.193 322.678,283.193 312.678,283.193 "/>
      <polygon fill = "none" stroke-linecap = "square" stroke-linejoin = "miter" stroke = "#d85218" stroke-width = "2.000pt" stroke-opacity = "1.000" stroke-dasharray = "none" points = "349.470,319.863 349.470,329.863 359.470,329.863 359.470,319.863 349.470,319.863 "/>
      <polygon fill = "none" stroke-linecap = "square" stroke-linejoin = "miter" stroke = "#d85218" stroke-width = "2.000pt" stroke-opacity = "1.000" stroke-dasharray = "none" points = "386.262,356.533 386.262,366.533 396.262,366.533 396.262,356.533 386.262,356.533 "/>
</g>
</g>
  <clipPath id = "ID000001">
    <rect x = "60.137" y = "31.500" width = "331.125" height = "330.033"/>
  </clipPath>
    </g>
    <g>
      <polyline fill = "none" stroke-linecap = "square" stroke-linejoin = "miter" stroke = "#262626" stroke-width = "2.000pt" stroke-dasharray = "none" stroke-opacity = "1.000" points = "96.928,361.533 96.928,358.222 "/>
      <polyline fill = "none" stroke-linecap = "square" stroke-linejoin = "miter" stroke = "#262626" stroke-width = "2.000pt" stroke-dasharray = "none" stroke-opacity = "1.000" points = "170.512,361.533 170.512,358.222 "/>
      <polyline fill = "none" stroke-linecap = "square" stroke-linejoin = "miter" stroke = "#262626" stroke-width = "2.000pt" stroke-dasharray = "none" stroke-opacity = "1.000" points = "244.095,361.533 244.095,358.222 "/>
      <polyline fill = "none" stroke-linecap = "square" stroke-linejoin = "miter" stroke = "#262626" stroke-width = "2.000pt" stroke-dasharray = "none" stroke-opacity = "1.000" points = "317.678,361.533 317.678,358.222 "/>
      <polyline fill = "none" stroke-linecap = "square" stroke-linejoin = "miter" stroke = "#262626" stroke-width = "2.000pt" stroke-dasharray = "none" stroke-opacity = "1.000" points = "60.137,361.533 391.262,361.533 "/>
      <polyline fill = "none" stroke-linecap = "square" stroke-linejoin = "miter" stroke = "#262626" stroke-width = "2.000pt" stroke-dasharray = "none" stroke-opacity = "1.000" points = "96.928,31.500 96.928,34.811 "/>
      <polyline fill = "none" stroke-linecap = "square" stroke-linejoin = "miter" stroke = "#262626" stroke-width = "2.000pt" stroke-dasharray = "none" stroke-opacity = "1.000" points = "170.512,31.500 170.512,34.811 "/>
      <polyline fill = "none" stroke-linecap = "square" stroke-linejoin = "miter" stroke = "#262626" stroke-width = "2.000pt" stroke-dasharray = "none" stroke-opacity = "1.000" points = "244.095,31.500 244.095,34.811 "/>
      <polyline fill = "none" stroke-linecap = "square" stroke-linejoin = "miter" stroke = "#262626" stroke-width = "2.000pt" stroke-dasharray = "none" stroke-opacity = "1.000" points = "317.678,31.500 317.678,34.811 "/>
      <polyline fill = "none" stroke-linecap = "square" stroke-linejoin = "miter" stroke = "#262626" stroke-width = "2.000pt" stroke-dasharray = "none" stroke-opacity = "1.000" points = "60.137,31.500 391.262,31.500 "/>
  <g transform = "translate(96.928,368.134)">
    <g transform = "rotate(-0.000)">
      <text x = "0.000" y = "0.9em" font-family = "Arial" text-anchor = "middle" dominant-baseline = "auto" font-size = "16.000pt" fill = "#262626"><tspan>2</tspan></text>
    </g>
  </g>
  <g transform = "translate(170.512,368.134)">
    <g transform = "rotate(-0.000)">
      <text x = "0.000" y = "0.9em" font-family = "Arial" text-anchor = "middle" dominant-baseline = "auto" font-size = "16.000pt" fill = "#262626"><tspan>4</tspan></text>
    </g>
  </g>
  <g transform = "translate(244.095,368.134)">
    <g transform = "rotate(-0.000)">
      <text x = "0.000" y = "0.9em" font-family = "Arial" text-anchor = "middle" dominant-baseline = "auto" font-size = "16.000pt" fill = "#262626"><tspan>6</tspan></text>
    </g>
  </g>
  <g transform = "translate(317.678,368.134)">
    <g transform = "rotate(-0.000)">
      <text x = "0.000" y = "0.9em" font-family = "Arial" text-anchor = "middle" dominant-baseline = "auto" font-size = "16.000pt" fill = "#262626"><tspan>8</tspan></text>
    </g>
  </g>
  <g transform = "translate(391.262,368.134)">
    <g transform = "rotate(-0.000)">
      <text x = "0.000" y = "0.9em" font-family = "Arial" text-anchor = "middle" dominant-baseline = "auto" font-size = "16.000pt" fill = "#262626"><tspan>10</tspan></text>
    </g>
  </g>
      <polyline fill = "none" stroke-linecap = "square" stroke-linejoin = "miter" stroke = "#262626" stroke-width = "2.000pt" stroke-dasharray = "none" stroke-opacity = "1.000" points = "60.137,324.863 63.448,324.863 "/>
      <polyline fill = "none" stroke-linecap = "square" stroke-linejoin = "miter" stroke = "#262626" stroke-width = "2.000pt" stroke-dasharray = "none" stroke-opacity = "1.000" points = "60.137,251.522 63.448,251.522 "/>
      <polyline fill = "none" stroke-linecap = "square" stroke-linejoin = "miter" stroke = "#262626" stroke-width = "2.000pt" stroke-dasharray = "none" stroke-opacity = "1.000" points = "60.137,178.181 63.448,178.181 "/>
      <polyline fill = "none" stroke-linecap = "square" stroke-linejoin = "miter" stroke = "#262626" stroke-width = "2.000pt" stroke-dasharray = "none" stroke-opacity = "1.000" points = "60.137,104.841 63.448,104.841 "/>
      <polyline fill = "none" stroke-linecap = "square" stroke-linejoin = "miter" stroke = "#262626" stroke-width = "2.000pt" stroke-dasharray = "none" stroke-opacity = "1.000" points = "60.137,361.533 60.137,31.500 "/>
      <polyline fill = "none" stroke-linecap = "square" stroke-linejoin = "miter" stroke = "#262626" stroke-width = "2.000pt" stroke-dasharray = "none" stroke-opacity = "1.000" points = "391.262,324.863 387.950,324.863 "/>
      <polyline fill = "none" stroke-linecap = "square" stroke-linejoin = "miter" stroke = "#262626" stroke-width = "2.000pt" stroke-dasharray = "none" stroke-opacity = "1.000" points = "391.262,251.522 387.950,251.522 "/>
      <polyline fill = "none" stroke-linecap = "square" stroke-linejoin = "miter" stroke = "#262626" stroke-width = "2.000pt" stroke-dasharray = "none" stroke-opacity = "1.000" points = "391.262,178.181 387.950,178.181 "/>
      <polyline fill = "none" stroke-linecap = "square" stroke-linejoin = "miter" stroke = "#262626" stroke-width = "2.000pt" stroke-dasharray = "none" stroke-opacity = "1.000" points = "391.262,104.841 387.950,104.841 "/>
      <polyline fill = "none" stroke-linecap = "square" stroke-linejoin = "miter" stroke = "#262626" stroke-width = "2.000pt" stroke-dasharray = "none" stroke-opacity = "1.000" points = "391.262,361.533 391.262,31.500 "/>
  <g transform = "translate(53.514,324.863)">
    <g transform = "rotate(-0.000)">
      <text x = "0.000" y = "0.3em" font-family = "Arial" text-anchor = "end" dominant-baseline = "auto" font-size = "16.000pt" fill = "#262626"><tspan>2</tspan></text>
    </g>
  </g>
  <g transform = "translate(53.514,251.522)">
    <g transform = "rotate(-0.000)">
      <text x = "0.000" y = "0.3em" font-family = "Arial" text-anchor = "end" dominant-baseline = "auto" font-size = "16.000pt" fill = "#262626"><tspan>4</tspan></text>
    </g>
  </g>
  <g transform = "translate(53.514,178.181)">
    <g transform = "rotate(-0.000)">
      <text x = "0.000" y = "0.3em" font-family = "Arial" text-anchor = "end" dominant-baseline = "auto" font-size = "16.000pt" fill = "#262626"><tspan>6</tspan></text>
    </g>
  </g>
  <g transform = "translate(53.514,104.841)">
    <g transform = "rotate(-0.000)">
      <text x = "0.000" y = "0.3em" font-family = "Arial" text-anchor = "end" dominant-baseline = "auto" font-size = "16.000pt" fill = "#262626"><tspan>8</tspan></text>
    </g>
  </g>
  <g transform = "translate(53.514,31.500)">
    <g transform = "rotate(-0.000)">
      <text x = "0.000" y = "0.3em" font-family = "Arial" text-anchor = "end" dominant-baseline = "auto" font-size = "16.000pt" fill = "#262626"><tspan>10</tspan></text>
    </g>
  </g>
      <polyline fill = "none" stroke-linecap = "square" stroke-linejoin = "miter" stroke = "#262626" stroke-width = "2.000pt" stroke-dasharray = "none" stroke-opacity = "1.000" points = "60.137,361.533 60.137,361.533 "/>
    </g>
  </g>
  <g id  = "ID000007">
  <clipPath id = "ID000008">
    <rect x = "413.167" y = "31.000" width = "105.000" height = "54.500"/>
  </clipPath>
  <g id = "ID000009">
    <rect fill = "#ffffff" stroke-linecap = "square" stroke-linejoin = "miter" stroke = "#262626" stroke-width = "2.000pt" stroke-dasharray = "none" stroke-opacity = "1.000" x = "413.167" y = "31.000" width = "105.000" height = "54.500"/>
  </g>
<g id = "ID000010" clip-path = "url(#ID000008)" >
<g>
      <polygon fill = "none" stroke-linecap = "square" stroke-linejoin = "miter" stroke = "#d85218" stroke-width = "2.000pt" stroke-opacity = "1.000" stroke-dasharray = "none" points = "432.167,66.000 432.167,76.000 442.167,76.000 442.167,66.000 432.167,66.000 "/>
</g>
</g>
<g id = "ID000011" clip-path = "url(#ID000008)" >
      <polyline fill = "none" stroke-linecap = "square" stroke-linejoin = "round" stroke = "#d85218" stroke-width = "2.000pt" stroke-dasharray = "none" stroke-opacity = "1.000" points = "417.167,71.000 457.167,71.000 "/>
</g>
<g id = "ID000012" clip-path = "url(#ID000008)" >
<g>
      <polygon fill = "none" stroke-linecap = "square" stroke-linejoin = "miter" stroke = "#0071bc" stroke-width = "2.000pt" stroke-opacity = "1.000" stroke-dasharray = "none" points = "432.167,40.500 432.167,50.500 442.167,50.500 442.167,40.500 432.167,40.500 "/>
</g>
</g>
<g id = "ID000013" clip-path = "url(#ID000008)" >
      <polyline fill = "none" stroke-linecap = "square" stroke-linejoin = "round" stroke = "#0071bc" stroke-width = "2.000pt" stroke-dasharray = "none" stroke-opacity = "1.000" points = "417.167,45.500 457.167,45.500 "/>
</g>
<g id = "ID000014" >
  <g transform = "translate(460.167,71.000)">
    <g transform = "rotate(-0.000)">
      <text x = "0.000" y = "0.3em" font-family = "Arial" text-anchor = "start" dominant-baseline = "auto" font-size = "16.000pt" fill = "#000000"><tspan>data2</tspan></text>
    </g>
  </g>
</g>
<g id = "ID000015" >
  <g transform = "translate(460.167,45.500)">
    <g transform = "rotate(-0.000)">
      <text x = "0.000" y = "0.3em" font-family = "Arial" text-anchor = "start" dominant-baseline = "auto" font-size = "16.000pt" fill = "#000000"><tspan>data1</tspan></text>
    </g>
  </g>
</g>
  </g>
  </g>
</svg>
